<svg id="Layer_1" enable-background="new 0 0 512 512" height="512" viewBox="0 0 512 512" width="512" xmlns="http://www.w3.org/2000/svg"><g><path d="m435.136 287.995c0 35.925-5.184 68.058-14.531 96.005l-164.605 10-164.605-10c-9.348-27.948-14.532-60.08-14.532-96.005 0-15.626.977-31.315 2.857-46.855 42.946.669 309.601.669 352.558 0 1.881 15.54 2.858 31.229 2.858 46.855z" fill="#fe8205"/><path d="m256 241.641v152.359l164.605-10c9.348-27.948 14.531-60.08 14.531-96.005 0-15.626-.977-31.315-2.857-46.855-21.478.334-98.879.501-176.279.501z" fill="#ff432e"/><path d="m420.605 384c-8.264 24.697-19.779 46.112-33.854 64l-130.751 10-130.751-10c-14.075-17.888-25.589-39.303-33.854-64z" fill="#98f739"/><path d="m256 458 130.751-10c14.075-17.888 25.589-39.303 33.854-64h-164.605z" fill="#77e62e"/><g><g><path d="m256 335c7.846 0 15.363-6.899 15-15-.364-8.127-6.591-15-15-15-7.846 0-15.363 6.899-15 15 .364 8.127 6.591 15 15 15z" fill="#23272b"/></g><g><path d="m256 335c7.846 0 15.363-6.899 15-15-.364-8.127-6.591-15-15-15z" fill="#0b0c0d"/></g></g><g><g><path d="m160 335c7.846 0 15.363-6.899 15-15-.364-8.127-6.591-15-15-15-7.846 0-15.363 6.899-15 15 .364 8.127 6.591 15 15 15z" fill="#23272b"/></g></g><g><g><path d="m352 335c7.846 0 15.363-6.899 15-15-.364-8.127-6.591-15-15-15-7.846 0-15.363 6.899-15 15 .364 8.127 6.591 15 15 15z" fill="#0b0c0d"/></g></g><path d="m364.402 64-108.402 10-108.402-10c30.094-39.133 67.665-64 108.402-64s78.308 24.867 108.402 64z" fill="#c78ff5"/><path d="m256 74 108.402-10c-30.094-39.133-67.665-64-108.402-64z" fill="#a260e5"/><path d="m401.654 128-145.654 10-145.654-10c10.431-23.773 23.008-45.485 37.253-64h216.803c14.244 18.515 26.821 40.227 37.252 64z" fill="#fff959"/><path d="m256 64v74l145.654-10c-10.431-23.773-23.008-45.485-37.253-64z" fill="#ffe733"/><path d="m386.751 448c-32.675 41.544-79.169 64-130.751 64s-98.077-22.456-130.751-64z" fill="#4a98f7"/><path d="m256 512c51.582 0 98.077-22.456 130.751-64h-130.751z" fill="#2864f0"/><path d="m432.279 241.139c-42.957.669-43.456 29.732-87.391 29.732-44.444 0-44.444-29.743-88.899-29.743-44.444 0-44.444 29.743-88.888 29.743-43.934 0-44.433-29.063-87.38-29.732 4.801-39.781 15.466-78.638 30.624-113.139h291.309c15.159 34.502 25.824 73.358 30.625 113.139z" fill="#f5fafc"/><path d="m256 128v113.129c44.444.005 44.448 29.743 88.888 29.743 43.934 0 44.434-29.063 87.391-29.732-4.801-39.781-15.466-78.638-30.624-113.139h-145.655z" fill="#e1f1fa"/><g><g><path d="m160 207c7.846 0 15.363-6.899 15-15-.364-8.127-6.591-15-15-15-7.846 0-15.363 6.899-15 15 .364 8.127 6.591 15 15 15z" fill="#23272b"/></g></g><g><g><path d="m256 207c7.846 0 15.363-6.899 15-15-.364-8.127-6.591-15-15-15-7.846 0-15.363 6.899-15 15 .364 8.127 6.591 15 15 15z" fill="#23272b"/></g></g><g><g><path d="m353.073 207c7.846 0 15.363-6.899 15-15-.364-8.127-6.591-15-15-15-7.846 0-15.363 6.899-15 15 .364 8.127 6.591 15 15 15z" fill="#0b0c0d"/></g></g><path d="m256 177v30c7.846 0 15.363-6.899 15-15-.364-8.127-6.591-15-15-15z" fill="#0b0c0d"/></g></svg>